<svg width="774.67255859375px" height="183.221240234375px" xmlns="http://www.w3.org/2000/svg" viewBox="-137.33627929687498 -16.610620117187494 774.67255859375 183.221240234375" style="background: rgb(255, 255, 255);" preserveAspectRatio="xMidYMid"><defs><filter id="editing-hover" x="-100%" y="-100%" width="300%" height="300%"><feFlood flood-color="#000000" result="flood"></feFlood><feComposite operator="in" in2="SourceAlpha" in="flood" result="shadow"></feComposite><feOffset dx="-1.3" dy="0.8" in="SourceGraphic" result="offset-1"></feOffset><feOffset dx="1.3" dy="-0.8" in="shadow" result="offset-2"></feOffset><feMerge><feMergeNode in="offset-2"></feMergeNode><feMergeNode in="offset-1"></feMergeNode></feMerge></filter></defs><g filter="url(#editing-hover)"><g transform="translate(-33.90000629425049, 111.2328109741211)"><path d="M7.80 0L7.80-70L41.20-70L41.20-64.80L13.40-64.80L13.40-41.30L32.50-41.30L30.60-35.80L13.40-35.80L13.40-5L41-5L41 0L7.80 0ZM63.50 0L63.50-65L46.50-65L46.50-70L86.70-70L86.70-65L69.10-65L69.10 0L63.50 0ZM131.90 0L131.90-35.80L100.10-35.80L100.10 0L94.50 0L94.50-70L100.10-70L100.10-41.30L131.90-41.30L131.90-70L137.50-70L137.50 0L131.90 0ZM158.80 0L158.80-64.90L152.10-65.10L152.10-70L164.40-70L164.40 0L158.80 0ZM220.20-18.50L220.20-18.50Q220.20-8.40 214.05-3.65L214.05-3.65L214.05-3.65Q207.90 1.10 199.30 1.10L199.30 1.10L199.30 1.10Q193.90 1.10 189.10-0.85L189.10-0.85L189.10-0.85Q184.30-2.80 181.25-7.20L181.25-7.20L181.25-7.20Q178.20-11.60 178.20-18.50L178.20-18.50L178.20-50.70L178.20-50.70Q178.20-61 183.85-66.30L183.85-66.30L183.85-66.30Q189.50-71.60 199.40-71.60L199.40-71.60L199.40-71.60Q209.30-71.60 214.75-66L214.75-66L214.75-66Q220.20-60.40 220.20-50.60L220.20-50.60L220.20-18.50ZM214.70-51.60L214.70-51.60Q214.70-58.90 210.45-62.60L210.45-62.60L210.45-62.60Q206.20-66.30 199.20-66.30L199.20-66.30L199.20-66.30Q192.20-66.30 188-62.60L188-62.60L188-62.60Q183.80-58.90 183.80-51.60L183.80-51.60L183.80-18.60L183.80-18.60Q183.80-11.50 188.15-7.85L188.15-7.85L188.15-7.85Q192.50-4.20 199.20-4.20L199.20-4.20L199.20-4.20Q206-4.20 210.35-7.75L210.35-7.75L210.35-7.75Q214.70-11.30 214.70-18.70L214.70-18.70L214.70-51.60ZM270.30 0L268.90-4.10L268.90-4.10Q263.70 1 254.40 1L254.40 1L254.40 1Q248.80 1 244-1.10L244-1.10L244-1.10Q239.20-3.20 236.25-7.70L236.25-7.70L236.25-7.70Q233.30-12.20 233.30-18.90L233.30-18.90L233.30-50.30L233.30-50.30Q233.30-57.30 235.55-61.55L235.55-61.55L235.55-61.55Q237.80-65.80 242-68.40L242-68.40L242-68.40Q246.40-70.90 252.80-70.90L252.80-70.90L252.80-70.90Q260.60-70.90 266.90-67.60L266.90-67.60L265.30-63.80L265.30-63.80Q259.60-65.90 254.50-65.90L254.50-65.90L254.50-65.90Q248.40-65.90 243.65-62.90L243.65-62.90L243.65-62.90Q238.90-59.90 238.90-51.20L238.90-51.20L238.90-18.70L238.90-18.70Q238.90-12 243.25-8.20L243.25-8.20L243.25-8.20Q247.60-4.40 254.30-4.40L254.30-4.40L254.30-4.40Q261.10-4.40 265.10-8.30L265.10-8.30L265.10-8.30Q269.10-12.20 269.10-18.60L269.10-18.60L269.10-24.50L262.50-24.50L260.60-30L274.40-30L274.40 0L270.30 0ZM288.30 0L288.30-70L312.90-70L312.90-70Q322.40-70 327.05-64.20L327.05-64.20L327.05-64.20Q331.70-58.40 331.70-48.60L331.70-48.60L331.70-48.60Q331.70-42.30 330.70-37.25L330.70-37.25L330.70-37.25Q329.70-32.20 325.70-28.35L325.70-28.35L325.70-28.35Q321.70-24.50 313.60-24.50L313.60-24.50L293.90-24.50L293.90 0L288.30 0ZM313.70-30L313.70-30Q319.30-30 322.05-33L322.05-33L322.05-33Q324.80-36 325.45-39.80L325.45-39.80L325.45-39.80Q326.10-43.60 326.10-48.30L326.10-48.30L326.10-48.30Q326.10-56.50 322.70-60.60L322.70-60.60L322.70-60.60Q319.30-64.70 313.30-64.70L313.30-64.70L293.90-64.70L293.90-30L313.70-30ZM344.40-17.80L344.40-17.80Q344.70-14.40 346.95-11.30L346.95-11.30L346.95-11.30Q349.20-8.20 353.15-6.25L353.15-6.25L353.15-6.25Q357.10-4.30 362.20-4.30L362.20-4.30L362.20-4.30Q369.90-4.30 375.05-7.75L375.05-7.75L375.05-7.75Q380.20-11.20 380.20-18.70L380.20-18.70L380.20-18.70Q380.20-23.10 377.70-26.05L377.70-26.05L377.70-26.05Q375.20-29 371.50-30.75L371.50-30.75L371.50-30.75Q367.80-32.50 361.40-34.80L361.40-34.80L361.40-34.80Q354.50-37.20 350.35-39.25L350.35-39.25L350.35-39.25Q346.20-41.30 343.35-44.80L343.35-44.80L343.35-44.80Q340.50-48.30 340.50-53.80L340.50-53.80L340.50-53.80Q340.50-58.20 343-62.15L343-62.15L343-62.15Q345.50-66.10 350.55-68.55L350.55-68.55L350.55-68.55Q355.60-71 363-71L363-71L363-71Q367.90-71 371.10-70.30L371.10-70.30L371.10-70.30Q374.30-69.60 377.60-68L377.60-68L375.90-62.70L375.90-62.70Q370.20-65.60 363.20-65.60L363.20-65.60L363.20-65.60Q355.50-65.60 350.90-62.40L350.90-62.40L350.90-62.40Q346.30-59.20 346.30-53.50L346.30-53.50L346.30-53.50Q346.30-49.90 348.60-47.45L348.60-47.45L348.60-47.45Q350.90-45 354.25-43.50L354.25-43.50L354.25-43.50Q357.60-42 363.60-39.90L363.60-39.90L363.60-39.90Q370.90-37.40 375.40-35.25L375.40-35.25L375.40-35.25Q379.90-33.10 383.05-29.15L383.05-29.15L383.05-29.15Q386.20-25.20 386.20-19.20L386.20-19.20L386.20-19.20Q386.20-10 380.35-4.45L380.35-4.45L380.35-4.45Q374.50 1.10 362.30 1.10L362.30 1.10L362.30 1.10Q354.90 1.10 349.65-1.65L349.65-1.65L349.65-1.65Q344.40-4.40 341.65-8.75L341.65-8.75L341.65-8.75Q338.90-13.10 338.70-17.80L338.70-17.80L344.40-17.80ZM395.50 0L395.50 0Q394.20 0 393.20-1L393.20-1L393.20-1Q392.20-2 392.20-3.30L392.20-3.30L392.20-3.30Q392.20-4.70 393.20-5.65L393.20-5.65L393.20-5.65Q394.20-6.60 395.50-6.60L395.50-6.60L395.50-6.60Q396.90-6.60 397.85-5.65L397.85-5.65L397.85-5.65Q398.80-4.70 398.80-3.30L398.80-3.30L398.80-3.30Q398.80-2 397.85-1L397.85-1L397.85-1Q396.90 0 395.50 0L395.50 0ZM438.90-0.60L438.90-0.60Q432.70 1 426.90 1L426.90 1L426.90 1Q421.50 1 417.90-0.20L417.90-0.20L417.90-0.20Q412-2.20 409.35-6.35L409.35-6.35L409.35-6.35Q406.70-10.50 406.70-18L406.70-18L406.70-30.80L406.70-30.80Q406.70-40.70 411.90-45.85L411.90-45.85L411.90-45.85Q417.10-51 425.30-51L425.30-51L425.30-51Q431.80-51 438.70-47.80L438.70-47.80L437.10-43.70L437.10-43.70Q431.40-46 426.10-46L426.10-46L426.10-46Q419.90-46 416.10-42.45L416.10-42.45L416.10-42.45Q412.30-38.90 412.30-31.40L412.30-31.40L412.30-16.90L412.30-16.90Q412.30-10 416.45-6.90L416.45-6.90L416.45-6.90Q420.60-3.80 427.50-3.80L427.50-3.80L427.50-3.80Q432-3.80 437.70-5.10L437.70-5.10L438.90-0.60ZM486.50-18.40L486.50-18.40Q486.50-10 481.90-4.50L481.90-4.50L481.90-4.50Q477.30 1 468.00 1L468.00 1L468.00 1Q458.70 1 453.95-4.55L453.95-4.55L453.95-4.55Q449.20-10.10 449.20-18.40L449.20-18.40L449.20-31.60L449.20-31.60Q449.20-41.10 454.05-46.15L454.05-46.15L454.05-46.15Q458.90-51.20 468.00-51.20L468.00-51.20L468.00-51.20Q476.70-51.20 481.60-45.95L481.60-45.95L481.60-45.95Q486.50-40.70 486.50-31.60L486.50-31.60L486.50-18.40ZM480.90-31.60L480.90-31.60Q480.90-39.10 477.45-42.60L477.45-42.60L477.45-42.60Q474.00-46.10 468.00-46.10L468.00-46.10L468.00-46.10Q461.80-46.10 458.30-42.60L458.30-42.60L458.30-42.60Q454.80-39.10 454.80-31.60L454.80-31.60L454.80-17.40L454.80-17.40Q454.80-11.40 458.35-7.70L458.35-7.70L458.35-7.70Q461.90-4 468.00-4L468.00-4L468.00-4Q474.20-4 477.55-7.65L477.55-7.65L477.55-7.65Q480.90-11.30 480.90-17.40L480.90-17.40L480.90-31.60ZM554.50 0L554.50-34.30L554.50-34.30Q554.50-40.30 551.35-43.10L551.35-43.10L551.35-43.10Q548.20-45.90 543.20-45.90L543.20-45.90L543.20-45.90Q539.30-45.90 534.50-44.20L534.50-44.20L530.80-42.40L530.80-42.40Q532.50-39 532.50-34.60L532.50-34.60L532.50 0L527.00 0L527.00-34.30L527.00-34.30Q527.00-40.40 523.85-43.15L523.85-43.15L523.85-43.15Q520.70-45.90 515.60-45.90L515.60-45.90L515.60-45.90Q512.50-45.90 509.20-44.95L509.20-44.95L509.20-44.95Q505.90-44 503.20-42.50L503.20-42.50L503.20 0L497.60 0L497.60-50.10L503.20-50.10L502.70-46.90L502.70-46.90Q509.30-50.80 516.20-50.80L516.20-50.80L516.20-50.80Q519.80-50.80 522.95-49.60L522.95-49.60L522.95-49.60Q526.10-48.40 528.30-46.10L528.30-46.10L528.30-46.10Q529.70-46.90 532.50-48.30L532.50-48.30L532.50-48.30Q538.40-51 543.90-51L543.90-51L543.90-51Q551.00-51 555.50-46.65L555.50-46.65L555.50-46.65Q560.00-42.30 560.00-34.60L560.00-34.60L560.00 0L554.50 0Z" fill="#5699d2"></path></g></g><style>text {
  font-size: 64px;
  font-family: Arial Black;
  dominant-baseline: central;
  text-anchor: middle;
}</style></svg>